<svg xmlns="http://www.w3.org/2000/svg" viewBox="0 0 635.94 144.06"><defs><style>.cls-1{fill:#fff;}</style></defs><g id="Layer_2" data-name="Layer 2"><g id="Layer_2-2" data-name="Layer 2"><path class="cls-1" d="M151.46,78.58c-1.25,50.17-65.32,77.76-102.8,44.68A62.61,62.61,0,0,1,30.77,99c-.3-.77-1.48-.25-1.18.48C60.26,172.37,168,150.68,168.67,72.2c0-.53,0-1.06,0-1.59Z"/><path class="cls-1" d="M168.53,67.72v0Z"/><path class="cls-1" d="M158.56,13.66a6.09,6.09,0,0,0-3.45-11.11,6,6,0,0,0-2.62.59l-1.09.67L26.3,80.67c-.16-1.85-.25-3.71-.25-5.6a62.7,62.7,0,0,1,61.2-62.68q.75,0,1.5,0t1.74,0a62.22,62.22,0,0,1,21.8,4.5L128,7.24a70.52,70.52,0,0,0-13.52-5L113.33,2c-.88-.21-1.76-.4-2.65-.58L109,1.08h0L107.2.79,105.49.56l-.2,0L103.67.36,102.23.23h-.12l-.67,0L100.1.09C99.52.06,99,0,98.37,0h-.28L96.48,0A72.34,72.34,0,0,0,29.61,44.9c-.33.82-.64,1.64-.95,2.47s-.59,1.67-.87,2.51c-.18.57-.35,1.13-.52,1.69-.25.86-.5,1.72-.72,2.59-.15.57-.29,1.15-.42,1.73h0c-.08.33-.15.65-.22,1s-.15.7-.22,1l-.09.44h0a0,0,0,0,1,0,0c0,.15-.05.31-.08.47-.06.33-.13.66-.18,1s-.07.41-.1.61-.07.4-.09.6a2.56,2.56,0,0,0-.05.27,2.51,2.51,0,0,1,0,.27c-.05.32-.09.64-.13,1,0,.11,0,.21-.05.32h0c0,.21-.05.42-.07.63a2.13,2.13,0,0,0,0,.25c0,.14,0,.29-.05.44l0,.21c-.05.51-.1,1-.14,1.54,0,.32-.05.65-.08,1s0,.38,0,.58c0,.45-.05.91-.08,1.37v.22c0,.5,0,1-.05,1.52h0c0,.52,0,1.05,0,1.57s0,.78,0,1.17c0,1.16.06,2.3.13,3.44a.41.41,0,0,1,0,.11c0,.37.05.73.08,1.1.06.77.14,1.54.22,2.3,0,.38.09.76.14,1.14a.31.31,0,0,0,0,.08L0,96.83l.93,1.61L157.37,14.3Z"/><path class="cls-1" d="M172.81,49.13,64.06,108.53l.65,1.3,112.4-52.18a4.77,4.77,0,1,0-4.3-8.52Z"/><path class="cls-1" d="M178.69,18.09a5.91,5.91,0,0,0-2.76.59l-.93.55L80.68,75.87l.87,1.61,98.67-47.74,1.72-.83h0a5.94,5.94,0,0,0-3.25-10.81Z"/><path class="cls-1" d="M234.17,84.32c.71,6.33,6.86,10.5,15.27,10.5,8.06,0,13.86-4.17,13.86-9.88,0-5-3.5-7.92-11.78-10l-8.28-2c-11.73-2.83-17.17-8.32-17.17-17.22,0-11,9.61-18.59,23.24-18.59s22.75,7.57,23.06,18.59h-9.65c-.57-6.37-5.84-10.22-13.54-10.22s-13,3.89-13,9.56c0,4.51,3.36,7.17,11.59,9.21l7,1.72c13.11,3.1,18.55,8.37,18.55,17.71,0,12-9.52,19.43-24.66,19.43-14.16,0-23.72-7.3-24.34-18.86Z"/><path class="cls-1" d="M279.19,88.35c0-8.41,6.51-13.28,18.37-14l13-.75V69.85c0-5.49-3.67-8.5-10.09-8.5-5.23,0-9,2.7-9.87,6.86h-9c.27-8.5,8.32-14.78,19.12-14.78,11.73,0,19.3,6.19,19.3,15.71v33h-9.16v-8h-.22c-2.66,5.22-8.63,8.5-15.18,8.5C285.83,102.61,279.19,96.94,279.19,88.35Zm31.34-4.29V80.3l-11.69.79c-6.55.4-10,2.84-10,7.09S292.47,95,298,95C305.13,95,310.53,90.39,310.53,84.06Z"/><path class="cls-1" d="M330.05,35.36h9.61v66.76h-9.61Z"/><path class="cls-1" d="M391,88c-1.37,8.63-9.82,14.65-20.63,14.65-13.94,0-22.62-9.38-22.62-24.43s8.77-24.83,22.23-24.83c13.19,0,21.51,9.16,21.51,23.72v3.37h-34v.57c0,8.32,5.22,13.81,13.1,13.81,5.58,0,10-2.65,11.29-6.86ZM357.45,73.7h24.39c-.22-7.48-4.95-12.44-11.95-12.44S358,66.31,357.45,73.7Z"/><path class="cls-1" d="M417,53.47c10.54,0,18.15,5.93,18.37,14.3h-9c-.4-4.25-4.07-6.91-9.56-6.91s-9.07,2.53-9.07,6.33c0,2.92,2.39,4.92,7.48,6.16l8,1.9c9.7,2.35,13.28,5.84,13.28,12.93,0,8.58-8.14,14.51-19.78,14.51-11.2,0-18.86-5.79-19.57-14.47h9.47c.76,4.6,4.48,7.13,10.58,7.13s9.74-2.48,9.74-6.38c0-3-1.9-4.65-6.95-5.93l-8.58-2.12c-8.68-2.13-13-6.56-13-13.2C398.36,59.27,405.93,53.47,417,53.47Z"/><path class="cls-1" d="M447.09,61.62h-6.64V54.05h6.64V49.62c0-9,4.08-12.93,13.81-12.93a28,28,0,0,1,4.87.45v7.3a17.3,17.3,0,0,0-3.58-.35c-3.94,0-5.58,1.72-5.62,5.84v4.12h9.25v7.57h-9.17v40.5h-9.56Z"/><path class="cls-1" d="M473.3,41.65a5.62,5.62,0,1,1,5.62,5.53A5.52,5.52,0,0,1,473.3,41.65Zm.8,12.4h9.6v48.07h-9.6Z"/><path class="cls-1" d="M493.88,54.05h9.17v8.1h.17c2.93-5.67,7.75-8.64,15.19-8.64,10.62,0,16.69,6.73,16.69,17.8v30.81h-9.61v-29c0-7.3-3.36-11.37-10.4-11.37-7.26,0-11.6,5-11.6,12.61v27.76h-9.61Z"/><path class="cls-1" d="M544.26,41.65a5.62,5.62,0,1,1,5.62,5.53A5.52,5.52,0,0,1,544.26,41.65Zm.8,12.4h9.6v48.07h-9.6Z"/><path class="cls-1" d="M577.28,43.24V54.05h9.21v7.57h-9.21V88.49c0,4.16,1.86,6.1,5.89,6.1a30.68,30.68,0,0,0,3.28-.22v7.57a26.81,26.81,0,0,1-5.41.49c-9.6,0-13.32-3.68-13.32-13V61.62h-6.64V54.05h6.64V43.24Z"/><path class="cls-1" d="M595.52,119.34v-7.79a16.52,16.52,0,0,0,3.05.22c4.56,0,7.09-2,8.72-7l.76-2.48-17.44-48.2h10.31l12.35,39.3h.22l12.35-39.3h10.1l-18,50.28c-4.12,11.56-8.68,15.27-18.5,15.27A38.3,38.3,0,0,1,595.52,119.34Z"/></g></g></svg>